<svg xmlns="http://www.w3.org/2000/svg" viewBox="0 0 206.38 217.27"><defs><style>.afa81a8f-36a6-4054-bc1d-463cc0578e1c{fill:#ffed00;}.a978d6c4-9265-456f-b767-05e7603f7d50{fill:#93430d;}</style></defs><title>logo_1</title><g id="eb6c0e92-56bc-4e08-be7f-c3a6bdfcbc83" data-name="Calque 2"><g id="f762c2c8-76c5-4b71-8e56-ae4844a933de" data-name="Calque 1"><path class="afa81a8f-36a6-4054-bc1d-463cc0578e1c" d="M22,21.27a133.06,133.06,0,0,1,65-21c12.63-.61,53-2.55,85,27,25.46,23.51,41.8,63.42,31,100-16.24,55-88,80.45-141,65-34.09-9.94-54.17-35-62-46,0,0,33,35,83,32,39.13-2.35,86-29,80-79a93.65,93.65,0,0,0-14.24-40.1C127.07,25.68,89.33,19,80,17.27A118.6,118.6,0,0,0,22,21.27Z"/><path d="M96.5,216.77a15.54,15.54,0,0,1-7.12-.56,15.54,15.54,0,0,0,7.8-5.44h.32C104.5,210.77,102.5,215.77,96.5,216.77Z"/><path d="M115,175.27c-8.3,3.77-22.82,8.86-28.31,15.86a9.11,9.11,0,0,0-2.19,5.64q0,.85.06,1.65c.35,5,2.32,8.25,5.16,10.19a6.56,6.56,0,0,1-.72.66c-2.19,1.75-5.14,1.78-7.85,1.5a19.17,19.17,0,0,1-2.65-4,20.13,20.13,0,0,1-1.75-12.25A20.77,20.77,0,0,1,79.58,187a27.2,27.2,0,0,1,9.92-9.22c-3.43-.57-6.87-1.47-9.36-4.2-1.87-2-3.21-5.09-3.64-9.8a60.09,60.09,0,0,1,3.81-27.43,41.84,41.84,0,0,1,2.19-4.57,12.38,12.38,0,0,0-3,2s1-6,4-10-1-8-1-13,3-7,2-11a18.58,18.58,0,0,1,0-8s5.3-.11,7,5c4,0,11-2,15,0,1-3,7-5,7-5s1,7-1,8c1,1,5,11,0,19,3,6,6,11,4,21C122.5,149.77,126,170.27,115,175.27Z"/><path d="M97.18,210.77a15.54,15.54,0,0,1-7.8,5.44,17.82,17.82,0,0,1-8.23-5.44c2.71.28,5.66.25,7.85-1.5a6.56,6.56,0,0,0,.72-.66A13.62,13.62,0,0,0,97.18,210.77Z"/><path class="a978d6c4-9265-456f-b767-05e7603f7d50" d="M89.38,216.21A20.13,20.13,0,0,1,83,217.27c-7,0-10.26-2.21-9-6,.56-1.69,3.66-.84,7.15-.5A17.82,17.82,0,0,0,89.38,216.21Z"/><path class="a978d6c4-9265-456f-b767-05e7603f7d50" d="M99,206.27a10.16,10.16,0,0,1-1.82,4.5,13.62,13.62,0,0,1-7.46-2.16c2.61-2.69,1.51-6.16-5.16-10.19-2.47-1.5-2.31-.95-7.81-3.9C75.49,193.84,74,193,71,191.27c-3.88-2.23-4.48-2.63-5-3s-1-.74-1.81-1.43c-2.07-1.69-2.84-2.45-4.19-3.57a42.58,42.58,0,0,0-4-3,24.6,24.6,0,0,0-7-3c-.58-.18-10.53-3.25-14.09-10.76-2.48-5.24-1.52-10.84-.41-14.74,2-7,6-9,7-19s7-8,5-19,2-13,2-15-3-2,.5-10.5c0,0,6,2,7,5,3,0,10-2,13,1,2-2,6-3,6-3l2-1a15.51,15.51,0,0,1,0,11c2,4,2,13-1,20-1.68,3.91,1.33,8.76,4.31,15.07,2.35,5,4.69,10.87,4.69,17.93,0,9.25-2,15.49-4.86,19.3a11.29,11.29,0,0,1-7.14,4.7c-3,0-6,3,3,7,1.11.49,2.32,1.07,3.58,1.72a82.22,82.22,0,0,1,7.11,4.14C93.55,195.63,99.7,201.36,99,206.27Z"/></g></g></svg>