<svg xmlns="http://www.w3.org/2000/svg" viewBox="0 0 573 217.27"><defs><style>.a1c8bd02-8ff5-4082-abcc-b95fd018ddc2{fill:#ffed00;}.e3fe1c88-82e3-4d89-8ac3-dcbf98dcc120{fill:#8e8e8e;}</style></defs><title>logo_demi_lune_1</title><g id="bed2942b-249c-4f32-955e-62cdf3156827" data-name="Calque 2"><g id="bd1ac08b-0c1b-4f18-9082-fbf9afc4082e" data-name="Calque 1"><path class="a1c8bd02-8ff5-4082-abcc-b95fd018ddc2" d="M22,21.27a133.06,133.06,0,0,1,65-21c12.63-.61,53-2.55,85,27,25.46,23.51,41.8,63.42,31,100-16.24,55-88,80.45-141,65-34.09-9.94-54.17-35-62-46,0,0,33,35,83,32,39.13-2.35,86-29,80-79a93.65,93.65,0,0,0-14.24-40.1C127.07,25.68,89.33,19,80,17.27A118.6,118.6,0,0,0,22,21.27Z"/><path d="M96.5,216.77a15.54,15.54,0,0,1-7.12-.56,15.54,15.54,0,0,0,7.8-5.44h.32C104.5,210.77,102.5,215.77,96.5,216.77Z"/><path d="M115,175.27c-8.3,3.77-22.82,8.86-28.31,15.86a9.11,9.11,0,0,0-2.19,5.64q0,.85.06,1.65c.35,5,2.32,8.25,5.16,10.19a6.56,6.56,0,0,1-.72.66c-2.19,1.75-5.14,1.78-7.85,1.5a19.17,19.17,0,0,1-2.65-4,20.13,20.13,0,0,1-1.75-12.25A20.77,20.77,0,0,1,79.58,187a27.2,27.2,0,0,1,9.92-9.22c-3.43-.57-6.87-1.47-9.36-4.2-1.87-2-3.21-5.09-3.64-9.8a60.09,60.09,0,0,1,3.81-27.43,41.84,41.84,0,0,1,2.19-4.57,12.38,12.38,0,0,0-3,2s1-6,4-10-1-8-1-13,3-7,2-11a18.58,18.58,0,0,1,0-8s5.3-.11,7,5c4,0,11-2,15,0,1-3,7-5,7-5s1,7-1,8c1,1,5,11,0,19,3,6,6,11,4,21C122.5,149.77,126,170.27,115,175.27Z"/><path d="M97.18,210.77a15.54,15.54,0,0,1-7.8,5.44,17.82,17.82,0,0,1-8.23-5.44c2.71.28,5.66.25,7.85-1.5a6.56,6.56,0,0,0,.72-.66A13.62,13.62,0,0,0,97.18,210.77Z"/><path class="e3fe1c88-82e3-4d89-8ac3-dcbf98dcc120" d="M89.38,216.21A20.13,20.13,0,0,1,83,217.27c-7,0-10.26-2.21-9-6,.56-1.69,3.66-.84,7.15-.5A17.82,17.82,0,0,0,89.38,216.21Z"/><path class="e3fe1c88-82e3-4d89-8ac3-dcbf98dcc120" d="M99,206.27a10.16,10.16,0,0,1-1.82,4.5,13.62,13.62,0,0,1-7.46-2.16c2.61-2.69,1.51-6.16-5.16-10.19-2.47-1.5-2.31-.95-7.81-3.9C75.49,193.84,74,193,71,191.27c-3.88-2.23-4.48-2.63-5-3s-1-.74-1.81-1.43c-2.07-1.69-2.84-2.45-4.19-3.57a42.58,42.58,0,0,0-4-3,24.6,24.6,0,0,0-7-3c-.58-.18-10.53-3.25-14.09-10.76-2.48-5.24-1.52-10.84-.41-14.74,2-7,6-9,7-19s7-8,5-19,2-13,2-15-3-2,.5-10.5c0,0,6,2,7,5,3,0,10-2,13,1,2-2,6-3,6-3l2-1a15.51,15.51,0,0,1,0,11c2,4,2,13-1,20-1.68,3.91,1.33,8.76,4.31,15.07,2.35,5,4.69,10.87,4.69,17.93,0,9.25-2,15.49-4.86,19.3a11.29,11.29,0,0,1-7.14,4.7c-3,0-6,3,3,7,1.11.49,2.32,1.07,3.58,1.72a82.22,82.22,0,0,1,7.11,4.14C93.55,195.63,99.7,201.36,99,206.27Z"/><path d="M254.75,124.93q0,2.1-.19,6.93h-.73c-.26,0-.9-.05-1.91-.16a31.94,31.94,0,0,0-3.42-.16l-27.38-.24c-.75,0-1.12-.24-1.12-.73s.59-.61,1.78-.72q2.5-.16,3-.69c.33-.35.5-1.35.5-3V80.83c0-2-.17-3.15-.5-3.47s-1.5-.48-3.53-.48c-.83,0-1.25-.3-1.25-.89s.26-.72.79-.72h.59c1.46.16,4.33.24,8.64.24q.6,0,2.31-.12c1.14-.08,2.09-.12,2.84-.12h.72c.79,0,1.19.26,1.19.8a.57.57,0,0,1-.36.61,12.83,12.83,0,0,1-2.28.2c-1.27.05-2,.31-2.27.76a13,13,0,0,0-.37,4.24v47.56c1.19.06,2.84.08,4.95.08q7.71,0,10.88-1a6.39,6.39,0,0,0,4.29-3.63,21.69,21.69,0,0,0,1.32-7.18c0-.69.29-1,.76-1s.8.4.75,1.21v7Z"/><path d="M283.7,127.67c0,.91-.77,1.87-2.33,2.86a8.29,8.29,0,0,1-4.49,1.49c-3,0-4.59-1.9-4.73-5.72q-2.49,6-7.74,6a6,6,0,0,1-4.66-2.06,7.64,7.64,0,0,1-1.83-5.28q0-6.62,6.47-10.48a30.83,30.83,0,0,1,7.71-2.58v-2c0-4.73-.2-7.84-.6-9.35q-1-4.11-4.75-4.11a5.26,5.26,0,0,0-3.85,1.53,5.18,5.18,0,0,0-1.55,3.87c0,.43.26.65.8.65a1.79,1.79,0,0,1,1.45,1,3.85,3.85,0,0,1,.65,2.18q0,3.56-2.87,3.55a3,3,0,0,1-2.48-1.25,5,5,0,0,1-1-3.19,9.49,9.49,0,0,1,2.44-6.53,9.62,9.62,0,0,1,7.52-3q7.25,0,8.9,4.84a29.22,29.22,0,0,1,.59,7.33v15.08c0,2.47,0,3.92.07,4.35.22,1.94.86,2.91,1.91,2.91a3.61,3.61,0,0,0,3-1.62c.44-.59.77-.88,1-.88S283.7,127.35,283.7,127.67Zm-11.6-8.55v-5.88q-4.87,1.37-7,3.59a8.22,8.22,0,0,0-2.12,5.92A7.07,7.07,0,0,0,264.2,127a3.61,3.61,0,0,0,3,1.65q2.79,0,4.49-3.87Q272.1,123.89,272.1,119.12Z"/><path d="M338.37,103.32q0,14.24-8.11,22.16-5.94,5.82-15.89,5.82H296.5q-1.26,0-1.26-.81c0-.48.7-.72,2.11-.72,1.8,0,2.93-.41,3.37-1.21a10.35,10.35,0,0,0,.26-3.07V82c0-2.63-.16-4.17-.49-4.6s-1.47-.64-3.4-.64c-1,0-1.52-.3-1.52-.89,0-.43.37-.64,1.12-.64h11.48q11.86,0,16.81,2,6,2.42,9.7,9.58A35.38,35.38,0,0,1,338.37,103.32ZM331,103q0-13.43-4.29-19.69T313.31,77c-2.94,0-4.73.38-5.34,1.13-.26.38-.4,1.67-.4,3.88v43a22,22,0,0,0,.1,2.75,1.36,1.36,0,0,0,.56.81c1.06.64,3.28,1,6.66,1a13.44,13.44,0,0,0,11.48-6.15Q331,117,331,103Z"/><path d="M367.71,122.51a8,8,0,0,1-1,2.86,18.07,18.07,0,0,1-2.07,3.35,9.25,9.25,0,0,1-7.59,3.55q-5.92,0-9.92-5.24a20.83,20.83,0,0,1-4-13q0-8.07,3.79-13.47t9.46-5.4a10.41,10.41,0,0,1,7.85,3.34,12.75,12.75,0,0,1,3.36,8.59,27.09,27.09,0,0,1-5.6.32h-4.62l-7.91.24a41.15,41.15,0,0,0-.33,5.07q0,8.12,2.54,12.49a7.88,7.88,0,0,0,7.15,4.38,6,6,0,0,0,4.22-1.46,17.56,17.56,0,0,0,3.43-5.56c.18-.43.42-.64.73-.64S367.71,122.13,367.71,122.51ZM362,106.06q-.27-9.68-5.67-9.67t-6.66,9.67Z"/><path d="M415.79,130.86c0,.4-.38.6-1.12.6H402.8c-.57,0-.86-.18-.86-.53s.24-.6.73-.6h2.17c.66-.05,1.05-.24,1.16-.56a19.29,19.29,0,0,0,.16-3.4v-20q0-4.69-1-6.67a3.54,3.54,0,0,0-3.43-2,4.83,4.83,0,0,0-3.18,1.25,6.56,6.56,0,0,0-2.06,3.18,74.62,74.62,0,0,0-.27,9V126.3c0,1.77,0,2.8.07,3.06a1.08,1.08,0,0,0,1.17,1h1.88q.84,0,.84.6c0,.35-.33.53-1,.53H387.3c-.53,0-.79-.22-.79-.64a.45.45,0,0,1,.39-.49,23.57,23.57,0,0,1,2.64-.08c.71-.05,1.08-.32,1.12-.8l.07-1.13V105.88q0-4.66-1-6.43a3.49,3.49,0,0,0-3.37-1.77,5.12,5.12,0,0,0-4,1.85,6.86,6.86,0,0,0-1.61,4.66V127a7.69,7.69,0,0,0,.29,2.86c.2.29.84.44,1.92.44h.52a3.86,3.86,0,0,1,.71-.08c.48,0,.72.22.72.64s-.29.57-.86.57h-.66c-1.06-.05-2.7-.05-5,0H372c-.61,0-.92-.22-.92-.64s.28-.57.86-.57a7.72,7.72,0,0,0,2.9-.28,1.32,1.32,0,0,0,.46-1V108.06a65.6,65.6,0,0,0-.2-7.08c-.13-.7-.77-1-1.91-1H371c-.57,0-.85-.19-.85-.57s.09-.51.29-.56a18.29,18.29,0,0,1,2.15-.24,13.12,13.12,0,0,0,3.8-1q2.27-.88,2.61-1.53c.48-.59.83-.89,1.05-.89s.35.21.4.64.09,1.94.13,4.52a8.61,8.61,0,0,1,8.13-5.16q5.86,0,7.13,5.4,2.58-5.4,8.25-5.4,4.89,0,6.61,4.27c.62,1.51.92,4,.92,7.5v19.91a9.51,9.51,0,0,0,.23,3c.15.19.84.33,2.05.44h1.17C415.55,130.28,415.79,130.45,415.79,130.86Z"/><path d="M431.75,130.81c0,.49-.38.73-1.12.73l-1.59-.16c-1.32-.11-2.42-.16-3.29-.16h-6.86a1.12,1.12,0,0,1-.79.32c-.49,0-.73-.2-.73-.6,0-.57.44-.85,1.32-.85,1.67-.05,2.58-.2,2.74-.44a12,12,0,0,0,.23-3.35V101.87a17,17,0,0,0-.17-2.38c-.06-.24-.34-.36-.82-.36H418.1c-.49,0-.73-.19-.73-.56s.37-.52,1.11-.57A13.58,13.58,0,0,0,426,95.49l.65-.47a12.58,12.58,0,0,1,.52,4.42v25.9a35.69,35.69,0,0,0,.1,3.78.88.88,0,0,0,.69.73,10.12,10.12,0,0,0,2.9.32C431.44,130.17,431.75,130.38,431.75,130.81ZM426.8,80.59c0,2.42-1,3.62-3,3.62a2.67,2.67,0,0,1-2.11-1,3.66,3.66,0,0,1-.85-2.46c0-2.53,1-3.79,3-3.79S426.8,78.17,426.8,80.59Z"/><path d="M481.14,124.93q0,2.1-.2,6.93h-.72c-.27,0-.9-.05-1.91-.16a31.94,31.94,0,0,0-3.42-.16l-27.39-.24c-.74,0-1.11-.24-1.11-.73s.59-.61,1.78-.72q2.5-.16,3-.69c.33-.35.49-1.35.49-3V80.83c0-2-.16-3.15-.49-3.47s-1.51-.48-3.53-.48c-.84,0-1.25-.3-1.25-.89s.26-.72.79-.72h.59q2.18.24,8.64.24c.4,0,1.16,0,2.31-.12s2.08-.12,2.83-.12h.73c.79,0,1.19.26,1.19.8a.57.57,0,0,1-.37.61,12.79,12.79,0,0,1-2.27.2c-1.28.05-2,.31-2.28.76a13.5,13.5,0,0,0-.36,4.24v47.56c1.19.06,2.84.08,4.95.08q7.71,0,10.88-1a6.35,6.35,0,0,0,4.28-3.63,21.19,21.19,0,0,0,1.32-7.18c0-.69.3-1,.76-1s.8.4.76,1.21v7Z"/><path d="M514.71,128.56c0,.37-.49.59-1.45.64a20.38,20.38,0,0,0-9,2.74.91.91,0,0,1-.46.16c-.26,0-.4-.21-.4-.64v-4.52q-3,5.16-8.44,5.16c-3.22,0-5.54-1.14-6.93-3.44a7.21,7.21,0,0,1-1-2.64q-.17-1.2-.16-6.49V101.2a10.92,10.92,0,0,0-.26-3.28c-.18-.32-.77-.51-1.78-.56h-.86c-1.19.1-1.78-.11-1.78-.65,0-.37.37-.56,1.12-.56s1.93.07,3.43.21c.75.07,1.19.11,1.32.11a27.11,27.11,0,0,0,4.28-.32v22.38q0,6.18.66,8.19a4.19,4.19,0,0,0,4.29,3.13,5.41,5.41,0,0,0,5.14-3.53c.8-1.71,1.19-4.44,1.19-8.19V105.7a29.7,29.7,0,0,0-.2-4.1V99c0-.8-.18-1.26-.43-1.4a3.59,3.59,0,0,0-1.48-.2c-1.85.05-2.77-.19-2.77-.72,0-.32.46-.48,1.39-.48h9v22.49q0,5.81.2,7.34c.13,1,.47,1.61,1,1.77a16.89,16.89,0,0,0,3.68.24C514.45,128,514.71,128.18,514.71,128.56Z"/><path d="M546.1,130.86q0,.6-1,.6H533c-.57,0-.86-.19-.86-.56a.45.45,0,0,1,.37-.49c.24,0,1.09-.1,2.54-.16.83-.05,1.31-.2,1.45-.44a8.88,8.88,0,0,0,.2-2.61V111.75c0-5.84-.18-9.33-.53-10.45-.75-2.41-2.24-3.62-4.49-3.62s-4,1.18-5.54,3.54a5.4,5.4,0,0,0-.66,2.89v25.1c0,.64.47,1,1.41,1l2,.08c.45,0,.67.19.67.57s-.26.56-.79.56h-12c-.66,0-1-.16-1-.49s.4-.54,1.19-.64h1.65c.66,0,1-.19,1.18-.56l.2-1.21V111q0-9.16-.13-10.13t-1.65-1h-1.91q-1.32,0-1.32-.6c0-.52.46-.77,1.38-.77a15.08,15.08,0,0,0,4.29-.89,7.64,7.64,0,0,0,3.23-1.86c.4-.43.7-.64.93-.64s.46.51.46,1.53v3.87q3.42-5.4,8.83-5.4A7.13,7.13,0,0,1,541,99.45c.79,1.61,1.19,4.68,1.19,9.19V127a8.93,8.93,0,0,0,.2,2.82c.26.32.9.48,1.91.48h1.19C545.87,130.33,546.1,130.51,546.1,130.86Z"/><path d="M573,122.51a8,8,0,0,1-1,2.86,18.06,18.06,0,0,1-2.08,3.35,9.23,9.23,0,0,1-7.58,3.55q-5.94,0-9.93-5.24a20.83,20.83,0,0,1-4-13q0-8.07,3.79-13.47t9.47-5.4a10.39,10.39,0,0,1,7.84,3.34,12.71,12.71,0,0,1,3.37,8.59,27.24,27.24,0,0,1-5.61.32h-4.61l-7.92.24a41.15,41.15,0,0,0-.33,5.07q0,8.12,2.54,12.49a7.9,7.9,0,0,0,7.16,4.38,6,6,0,0,0,4.22-1.46,17.74,17.74,0,0,0,3.43-5.56c.17-.43.42-.64.72-.64S573,122.13,573,122.51Zm-5.74-16.45q-.25-9.68-5.67-9.67t-6.66,9.67Z"/><text/><text/></g></g></svg>