<svg xmlns="http://www.w3.org/2000/svg" viewBox="0 0 735 217.27"><defs><style>.b984665f-4ff9-49a1-bcb1-161f63b91825{fill:#ffed00;}.a203b516-49dc-4f8c-8009-7324444b9995{fill:#8e8e8e;}</style></defs><title>logo_demi_lune_2</title><g id="e4020c4a-9eb1-478d-a96d-8832f5f76960" data-name="Calque 2"><g id="a56d2597-f9c6-4970-929b-606dab8405bc" data-name="Calque 1"><path class="b984665f-4ff9-49a1-bcb1-161f63b91825" d="M22,21.27a133.06,133.06,0,0,1,65-21c12.63-.61,53-2.55,85,27,25.46,23.51,41.8,63.42,31,100-16.24,55-88,80.45-141,65-34.09-9.94-54.17-35-62-46,0,0,33,35,83,32,39.13-2.35,86-29,80-79a93.65,93.65,0,0,0-14.24-40.1C127.07,25.68,89.33,19,80,17.27A118.6,118.6,0,0,0,22,21.27Z"/><path d="M96.5,216.77a15.54,15.54,0,0,1-7.12-.56,15.54,15.54,0,0,0,7.8-5.44h.32C104.5,210.77,102.5,215.77,96.5,216.77Z"/><path d="M115,175.27c-8.3,3.77-22.82,8.86-28.31,15.86a9.11,9.11,0,0,0-2.19,5.64q0,.85.06,1.65c.35,5,2.32,8.25,5.16,10.19a6.56,6.56,0,0,1-.72.66c-2.19,1.75-5.14,1.78-7.85,1.5a19.17,19.17,0,0,1-2.65-4,20.13,20.13,0,0,1-1.75-12.25A20.77,20.77,0,0,1,79.58,187a27.2,27.2,0,0,1,9.92-9.22c-3.43-.57-6.87-1.47-9.36-4.2-1.87-2-3.21-5.09-3.64-9.8a60.09,60.09,0,0,1,3.81-27.43,41.84,41.84,0,0,1,2.19-4.57,12.38,12.38,0,0,0-3,2s1-6,4-10-1-8-1-13,3-7,2-11a18.58,18.58,0,0,1,0-8s5.3-.11,7,5c4,0,11-2,15,0,1-3,7-5,7-5s1,7-1,8c1,1,5,11,0,19,3,6,6,11,4,21C122.5,149.77,126,170.27,115,175.27Z"/><path d="M97.18,210.77a15.54,15.54,0,0,1-7.8,5.44,17.82,17.82,0,0,1-8.23-5.44c2.71.28,5.66.25,7.85-1.5a6.56,6.56,0,0,0,.72-.66A13.62,13.62,0,0,0,97.18,210.77Z"/><path class="a203b516-49dc-4f8c-8009-7324444b9995" d="M89.38,216.21A20.13,20.13,0,0,1,83,217.27c-7,0-10.26-2.21-9-6,.56-1.69,3.66-.84,7.15-.5A17.82,17.82,0,0,0,89.38,216.21Z"/><path class="a203b516-49dc-4f8c-8009-7324444b9995" d="M99,206.27a10.16,10.16,0,0,1-1.82,4.5,13.62,13.62,0,0,1-7.46-2.16c2.61-2.69,1.51-6.16-5.16-10.19-2.47-1.5-2.31-.95-7.81-3.9C75.49,193.84,74,193,71,191.27c-3.88-2.23-4.48-2.63-5-3s-1-.74-1.81-1.43c-2.07-1.69-2.84-2.45-4.19-3.57a42.58,42.58,0,0,0-4-3,24.6,24.6,0,0,0-7-3c-.58-.18-10.53-3.25-14.09-10.76-2.48-5.24-1.52-10.84-.41-14.74,2-7,6-9,7-19s7-8,5-19,2-13,2-15-3-2,.5-10.5c0,0,6,2,7,5,3,0,10-2,13,1,2-2,6-3,6-3l2-1a15.51,15.51,0,0,1,0,11c2,4,2,13-1,20-1.68,3.91,1.33,8.76,4.31,15.07,2.35,5,4.69,10.87,4.69,17.93,0,9.25-2,15.49-4.86,19.3a11.29,11.29,0,0,1-7.14,4.7c-3,0-6,3,3,7,1.11.49,2.32,1.07,3.58,1.72a82.22,82.22,0,0,1,7.11,4.14C93.55,195.63,99.7,201.36,99,206.27Z"/><path d="M270.7,141.89c0,1.79-.09,4.74-.29,8.86h-1.05q-.58,0-2.79-.21c-1.47-.13-3.13-.2-5-.2L221.63,150c-1.09,0-1.63-.31-1.63-.93s.87-.79,2.6-.92c2.43-.14,3.89-.43,4.38-.88s.72-1.73.72-3.86V85.53c0-2.54-.24-4-.72-4.43s-2.2-.61-5.15-.61q-1.83,0-1.83-1.14c0-.61.39-.92,1.15-.92H222q3.18.3,12.6.31c.58,0,1.7-.06,3.37-.16s3-.15,4.14-.15h1.06c1.15,0,1.73.34,1.73,1a.71.71,0,0,1-.53.77,22.18,22.18,0,0,1-3.32.26c-1.86.07-3,.39-3.32,1s-.53,2.38-.53,5.4v60.79q2.59.1,7.22.1,11.25,0,15.87-1.23c3.08-.83,5.16-2.37,6.26-4.64a24.42,24.42,0,0,0,1.92-9.17c.06-.89.43-1.34,1.11-1.34s1.16.52,1.1,1.55v9Z"/><path d="M312.94,145.39c0,1.17-1.14,2.39-3.4,3.66A13.43,13.43,0,0,1,303,151q-6.6,0-6.89-7.32-3.64,7.63-11.29,7.63a9.32,9.32,0,0,1-6.8-2.63,9,9,0,0,1-2.68-6.75q0-8.44,9.44-13.39,3.24-1.65,11.24-3.3v-2.58q0-9.06-.86-12-1.54-5.25-6.93-5.25a8.29,8.29,0,0,0-5.63,2,6.24,6.24,0,0,0-2.26,4.94c0,.55.39.83,1.18.83a2.68,2.68,0,0,1,2.12,1.23,4.52,4.52,0,0,1,.93,2.78q0,4.55-4.18,4.54a4.61,4.61,0,0,1-3.62-1.6,5.83,5.83,0,0,1-1.43-4.07,11.3,11.3,0,0,1,3.56-8.34q3.94-3.82,11-3.82,10.57,0,13,6.18c.58,1.59.87,4.71.87,9.38V138.7c0,3.16,0,5,.1,5.56q.48,3.7,2.79,3.71a5.53,5.53,0,0,0,4.42-2.06c.64-.76,1.12-1.14,1.45-1.14S312.94,145,312.94,145.39ZM296,134.47V127q-7.11,1.76-10.19,4.59a9.76,9.76,0,0,0-3.08,7.57,8.18,8.18,0,0,0,1.75,5.41,5.49,5.49,0,0,0,4.41,2.11q4.08,0,6.54-4.95Q296,140.56,296,134.47Z"/><path d="M392.69,114.28q0,18.18-11.83,28.31Q372.2,150,357.67,150H331.6c-1.22,0-1.83-.34-1.83-1s1-.93,3.08-.93q3.94,0,4.91-1.54a11.56,11.56,0,0,0,.38-3.92V87.08q0-5-.72-5.87c-.48-.55-2.13-.83-4.95-.83-1.48,0-2.22-.37-2.22-1.13,0-.55.55-.82,1.64-.82h16.74q17.31,0,24.53,2.58,8.76,3.1,14.15,12.24A40.68,40.68,0,0,1,392.69,114.28Zm-10.77-.41q0-17.16-6.25-25.17t-19.54-8q-6.44,0-7.79,1.45c-.38.48-.58,2.14-.58,5v55a22.39,22.39,0,0,0,.15,3.51,1.65,1.65,0,0,0,.82,1c1.54.82,4.77,1.24,9.71,1.24A20.46,20.46,0,0,0,375.18,140Q381.92,131.75,381.92,113.87Z"/><path d="M435.5,138.8a9.4,9.4,0,0,1-1.49,3.66,22.31,22.31,0,0,1-3,4.27,14.22,14.22,0,0,1-11.06,4.54,18.43,18.43,0,0,1-14.48-6.7q-5.82-6.69-5.82-16.59,0-10.31,5.53-17.2T419,103.87a16.23,16.23,0,0,1,11.45,4.28,15.25,15.25,0,0,1,4.9,11,45.32,45.32,0,0,1-8.18.41H420.4c-.45,0-4.3.11-11.55.31a46.24,46.24,0,0,0-.48,6.47q0,10.37,3.71,16a11.82,11.82,0,0,0,10.44,5.6,9.52,9.52,0,0,0,6.15-1.86c1.54-1.24,3.21-3.6,5-7.11a1.17,1.17,0,0,1,1.06-.82C435.25,138.08,435.5,138.32,435.5,138.8Zm-8.37-21q-.37-12.36-8.27-12.36t-9.72,12.36Z"/><path d="M505.64,149.47c0,.51-.54.77-1.64.77H486.69c-.84,0-1.25-.23-1.25-.68s.35-.77,1.06-.77h3.17c1-.06,1.52-.31,1.68-.72a19.82,19.82,0,0,0,.25-4.34V118.12q0-6-1.49-8.52a5.33,5.33,0,0,0-5-2.53,7.64,7.64,0,0,0-4.64,1.59,8.42,8.42,0,0,0-3,4.07c-.26,1-.38,4.85-.38,11.44v19.47c0,2.27,0,3.57.09,3.92a1.53,1.53,0,0,0,1.7,1.23h2.75c.82,0,1.23.26,1.23.77s-.48.68-1.44.68H464.08c-.77,0-1.16-.28-1.16-.83a.59.59,0,0,1,.58-.61,35.92,35.92,0,0,1,3.85-.11c1-.06,1.57-.41,1.64-1l.09-1.44V117.55q0-6-1.38-8.22t-4.93-2.26a8,8,0,0,0-5.88,2.36,8.13,8.13,0,0,0-2.34,6v29.19c0,2.06.14,3.27.43,3.65s1.22.56,2.79.56h.76a6.85,6.85,0,0,1,1-.1c.7,0,1.05.28,1.05.82s-.42.73-1.26.73h-1q-2.31-.11-7.21,0h-9.43c-.9,0-1.35-.28-1.35-.83s.42-.72,1.25-.72q3.66,0,4.23-.36a1.58,1.58,0,0,0,.68-1.28V120.33a73.34,73.34,0,0,0-.29-9c-.19-.89-1.12-1.34-2.79-1.34h-3.17q-1.26,0-1.26-.72c0-.41.15-.65.44-.72s1.33-.17,3.13-.31a20.81,20.81,0,0,0,5.54-1.24q3.31-1.12,3.81-1.95c.7-.76,1.22-1.14,1.54-1.14s.51.28.58.83.12,2.47.19,5.77q3.85-6.6,11.85-6.6,8.58,0,10.41,6.91,3.75-6.91,12-6.91,7.14,0,9.64,5.46c.9,1.93,1.35,5.12,1.35,9.59v25.44q0,3.51.33,3.87c.22.24,1.22.43,3,.56h1.7C505.29,148.73,505.64,149,505.64,149.47Z"/><path d="M528.92,149.41c0,.62-.54.93-1.63.93l-2.31-.21c-1.93-.13-3.53-.2-4.81-.2h-10a1.74,1.74,0,0,1-1.15.41c-.71,0-1.06-.26-1.06-.76,0-.73.64-1.1,1.92-1.1,2.44-.06,3.77-.25,4-.56s.34-1.74.34-4.28V112.42a18,18,0,0,0-.24-3c-.1-.31-.5-.47-1.2-.47H509c-.71,0-1.06-.24-1.06-.72s.54-.66,1.61-.72a21.85,21.85,0,0,0,10.92-3.21l.95-.6a14.44,14.44,0,0,1,.76,5.65v33.1a44,44,0,0,0,.14,4.83,1.2,1.2,0,0,0,1,.93,16.64,16.64,0,0,0,4.24.41C528.47,148.59,528.92,148.86,528.92,149.41Zm-7.21-64.18c0,3.09-1.45,4.63-4.33,4.63a4.11,4.11,0,0,1-3.08-1.29,4.29,4.29,0,0,1-1.25-3.14q0-4.84,4.33-4.84C520.26,80.59,521.71,82.13,521.71,85.23Z"/><path d="M601,141.89c0,1.79-.09,4.74-.29,8.86h-1.05q-.58,0-2.79-.21c-1.47-.13-3.13-.2-5-.2l-40-.31c-1.09,0-1.63-.31-1.63-.93s.86-.79,2.6-.92c2.43-.14,3.89-.43,4.38-.88s.72-1.73.72-3.86V85.53c0-2.54-.24-4-.72-4.43s-2.2-.61-5.15-.61q-1.83,0-1.83-1.14c0-.61.39-.92,1.15-.92h.87q3.18.3,12.6.31c.58,0,1.7-.06,3.37-.16s3.05-.15,4.14-.15h1.06c1.15,0,1.73.34,1.73,1a.71.71,0,0,1-.53.77,22.18,22.18,0,0,1-3.32.26c-1.86.07-3,.39-3.32,1s-.53,2.38-.53,5.4v60.79q2.6.1,7.22.1,11.25,0,15.87-1.23c3.08-.83,5.16-2.37,6.26-4.64a24.42,24.42,0,0,0,1.92-9.17c.06-.89.43-1.34,1.11-1.34s1.16.52,1.1,1.55v9Z"/><path d="M650,146.53c0,.48-.7.75-2.11.82a32.91,32.91,0,0,0-13.18,3.5,1.46,1.46,0,0,1-.68.21c-.38,0-.57-.28-.57-.82v-5.77a14,14,0,0,1-12.32,6.59q-7.07,0-10.12-4.4a8.68,8.68,0,0,1-1.48-3.38,80.38,80.38,0,0,1-.23-8.28V111.57q0-3.58-.39-4.2c-.25-.41-1.12-.65-2.6-.72H605c-1.73.14-2.59-.13-2.59-.82,0-.48.54-.72,1.63-.72s2.82.09,5,.27c1.09.1,1.74.14,1.93.14a45,45,0,0,0,6.25-.41v28.61q0,7.89,1,10.46c1,2.66,3.12,4,6.26,4a8,8,0,0,0,7.5-4.52q1.74-3.27,1.73-10.46V117.31a35.39,35.39,0,0,0-.28-5.23V108.7c-.07-1-.28-1.62-.63-1.8a6,6,0,0,0-2.17-.25c-2.69.07-4-.24-4-.93,0-.4.68-.61,2-.61h13.09v28.74a86,86,0,0,0,.29,9.38c.18,1.31.68,2.06,1.47,2.27a28.35,28.35,0,0,0,5.37.31Q650,145.81,650,146.53Z"/><path d="M695.75,149.47c0,.51-.48.77-1.45.77H676.6c-.83,0-1.25-.24-1.25-.72a.58.58,0,0,1,.53-.62c.35-.07,1.59-.14,3.7-.21,1.22-.06,1.93-.25,2.12-.56a10,10,0,0,0,.29-3.34V125.05q0-11.19-.77-13.36a6.37,6.37,0,0,0-6.54-4.62q-4.81,0-8.08,4.52a6.23,6.23,0,0,0-1,3.7v32.07c0,.82.69,1.27,2.06,1.33l2.93.11c.65,0,1,.24,1,.72s-.39.72-1.15.72H652.93c-1,0-1.44-.21-1.44-.64s.58-.69,1.73-.81h2.41c1,0,1.54-.24,1.73-.72l.29-1.54v-22.4q0-11.72-.19-12.95c-.13-.82-.93-1.23-2.41-1.23h-2.79c-1.28,0-1.92-.25-1.92-.76s.67-1,2-1a24.79,24.79,0,0,0,6.25-1.13,11.59,11.59,0,0,0,4.71-2.37,2.44,2.44,0,0,1,1.35-.83c.45,0,.68.66.68,2v5q5-6.91,12.89-6.91,6.93,0,10,5.46,1.74,3.09,1.74,11.75v23.49c0,2.2.09,3.4.28,3.61.39.41,1.32.61,2.79.61h1.74C695.43,148.79,695.75,149,695.75,149.47Z"/><path d="M735,138.8a9.57,9.57,0,0,1-1.49,3.66,23.23,23.23,0,0,1-3,4.27,14.23,14.23,0,0,1-11.06,4.54,18.45,18.45,0,0,1-14.49-6.7q-5.82-6.69-5.81-16.59,0-10.31,5.53-17.2t13.8-6.91a16.21,16.21,0,0,1,11.45,4.28,15.22,15.22,0,0,1,4.91,11,45.38,45.38,0,0,1-8.18.41H719.9c-.45,0-4.3.11-11.55.31a46.24,46.24,0,0,0-.48,6.47q0,10.37,3.7,16a11.82,11.82,0,0,0,10.44,5.6,9.53,9.53,0,0,0,6.16-1.86c1.54-1.24,3.21-3.6,5-7.11a1.18,1.18,0,0,1,1.06-.82C734.74,138.08,735,138.32,735,138.8Zm-8.37-21q-.39-12.36-8.27-12.36t-9.72,12.36Z"/><text/><text/></g></g></svg>