<svg xmlns="http://www.w3.org/2000/svg" viewBox="0 0 480.35 217.27"><defs><style>.b684d934-0930-4a9c-a49e-5ff3b845f9a9{fill:#ffed00;}.a8e34a00-c64d-4027-827f-ba9162bc4746{fill:#8e8e8e;}</style></defs><title>logo_demi_lune</title><g id="f785ab63-d97e-40a1-857a-5e3b42eb9f70" data-name="Calque 2"><g id="f9ae2c86-ef72-4b0a-8160-147000c871e0" data-name="Calque 1"><path class="b684d934-0930-4a9c-a49e-5ff3b845f9a9" d="M22,21.27a133.06,133.06,0,0,1,65-21c12.63-.61,53-2.55,85,27,25.46,23.51,41.8,63.42,31,100-16.24,55-88,80.45-141,65-34.09-9.94-54.17-35-62-46,0,0,33,35,83,32,39.13-2.35,86-29,80-79a93.65,93.65,0,0,0-14.24-40.1C127.07,25.68,89.33,19,80,17.27A118.6,118.6,0,0,0,22,21.27Z"/><path d="M96.5,216.77a15.54,15.54,0,0,1-7.12-.56,15.54,15.54,0,0,0,7.8-5.44h.32C104.5,210.77,102.5,215.77,96.5,216.77Z"/><path d="M115,175.27c-8.3,3.77-22.82,8.86-28.31,15.86a9.11,9.11,0,0,0-2.19,5.64q0,.85.06,1.65c.35,5,2.32,8.25,5.16,10.19a6.56,6.56,0,0,1-.72.66c-2.19,1.75-5.14,1.78-7.85,1.5a19.17,19.17,0,0,1-2.65-4,20.13,20.13,0,0,1-1.75-12.25A20.77,20.77,0,0,1,79.58,187a27.2,27.2,0,0,1,9.92-9.22c-3.43-.57-6.87-1.47-9.36-4.2-1.87-2-3.21-5.09-3.64-9.8a60.09,60.09,0,0,1,3.81-27.43,41.84,41.84,0,0,1,2.19-4.57,12.38,12.38,0,0,0-3,2s1-6,4-10-1-8-1-13,3-7,2-11a18.58,18.58,0,0,1,0-8s5.3-.11,7,5c4,0,11-2,15,0,1-3,7-5,7-5s1,7-1,8c1,1,5,11,0,19,3,6,6,11,4,21C122.5,149.77,126,170.27,115,175.27Z"/><path d="M97.18,210.77a15.54,15.54,0,0,1-7.8,5.44,17.82,17.82,0,0,1-8.23-5.44c2.71.28,5.66.25,7.85-1.5a6.56,6.56,0,0,0,.72-.66A13.62,13.62,0,0,0,97.18,210.77Z"/><path class="a8e34a00-c64d-4027-827f-ba9162bc4746" d="M89.38,216.21A20.13,20.13,0,0,1,83,217.27c-7,0-10.26-2.21-9-6,.56-1.69,3.66-.84,7.15-.5A17.82,17.82,0,0,0,89.38,216.21Z"/><path class="a8e34a00-c64d-4027-827f-ba9162bc4746" d="M99,206.27a10.16,10.16,0,0,1-1.82,4.5,13.62,13.62,0,0,1-7.46-2.16c2.61-2.69,1.51-6.16-5.16-10.19-2.47-1.5-2.31-.95-7.81-3.9C75.49,193.84,74,193,71,191.27c-3.88-2.23-4.48-2.63-5-3s-1-.74-1.81-1.43c-2.07-1.69-2.84-2.45-4.19-3.57a42.58,42.58,0,0,0-4-3,24.6,24.6,0,0,0-7-3c-.58-.18-10.53-3.25-14.09-10.76-2.48-5.24-1.52-10.84-.41-14.74,2-7,6-9,7-19s7-8,5-19,2-13,2-15-3-2,.5-10.5c0,0,6,2,7,5,3,0,10-2,13,1,2-2,6-3,6-3l2-1a15.51,15.51,0,0,1,0,11c2,4,2,13-1,20-1.68,3.91,1.33,8.76,4.31,15.07,2.35,5,4.69,10.87,4.69,17.93,0,9.25-2,15.49-4.86,19.3a11.29,11.29,0,0,1-7.14,4.7c-3,0-6,3,3,7,1.11.49,2.32,1.07,3.58,1.72a82.22,82.22,0,0,1,7.11,4.14C93.55,195.63,99.7,201.36,99,206.27Z"/><path d="M248.7,121.41c0,.83,0,2.21-.14,4.13H248c-.19,0-.65,0-1.39-.1s-1.56-.09-2.49-.09l-19.93-.15c-.54,0-.81-.14-.81-.43s.43-.37,1.29-.43a4.76,4.76,0,0,0,2.19-.41q.36-.32.36-1.8v-27c0-1.18-.12-1.87-.36-2.06a6.07,6.07,0,0,0-2.57-.29c-.61,0-.91-.17-.91-.53s.19-.43.57-.43h.44c1.05.1,3.15.15,6.28.15.29,0,.85,0,1.68-.08s1.52-.07,2.07-.07H235c.57,0,.86.16.86.48a.34.34,0,0,1-.26.36,11.08,11.08,0,0,1-1.66.12c-.93,0-1.48.19-1.66.46a6.73,6.73,0,0,0-.26,2.52V124.1c.86,0,2.06.05,3.6.05a37.43,37.43,0,0,0,7.92-.58,4.44,4.44,0,0,0,3.12-2.16,10.82,10.82,0,0,0,1-4.27c0-.42.21-.63.55-.63s.59.24.55.72v4.18Z"/><path d="M269.78,123c0,.55-.57,1.11-1.7,1.71a7,7,0,0,1-3.27.88c-2.2,0-3.34-1.13-3.44-3.4a6,6,0,0,1-5.63,3.55,4.85,4.85,0,0,1-3.4-1.23,4.05,4.05,0,0,1-1.33-3.14q0-3.93,4.71-6.24a26.26,26.26,0,0,1,5.61-1.54v-1.2a22.78,22.78,0,0,0-.43-5.56,3.28,3.28,0,0,0-3.46-2.45,4.31,4.31,0,0,0-2.81.91,2.85,2.85,0,0,0-1.13,2.3c0,.26.2.39.59.39a1.38,1.38,0,0,1,1.06.57,2,2,0,0,1,.47,1.3,1.86,1.86,0,0,1-2.09,2.11,2.43,2.43,0,0,1-1.81-.74,2.62,2.62,0,0,1-.71-1.9,5.13,5.13,0,0,1,1.77-3.89,7.92,7.92,0,0,1,5.48-1.77q5.28,0,6.48,2.88a14.47,14.47,0,0,1,.43,4.37v9c0,1.47,0,2.34.05,2.59.16,1.16.62,1.73,1.39,1.73a2.86,2.86,0,0,0,2.21-1c.31-.35.56-.53.72-.53S269.78,122.85,269.78,123ZM261.33,118v-3.5a12.09,12.09,0,0,0-5.09,2.14,4.42,4.42,0,0,0-1.54,3.52,3.65,3.65,0,0,0,.88,2.52,2.81,2.81,0,0,0,2.2,1,3.67,3.67,0,0,0,3.26-2.31A10.52,10.52,0,0,0,261.33,118Z"/><path d="M309.57,108.55q0,8.46-5.91,13.19-4.32,3.47-11.57,3.46h-13c-.61,0-.92-.16-.92-.48s.52-.43,1.54-.43c1.31,0,2.13-.24,2.45-.72a4.87,4.87,0,0,0,.19-1.82V95.87c0-1.56-.12-2.48-.36-2.73s-1.06-.39-2.47-.39c-.74,0-1.1-.17-1.1-.52s.27-.39.81-.39h8.35q8.64,0,12.24,1.21a13.07,13.07,0,0,1,7.06,5.7A18,18,0,0,1,309.57,108.55Zm-5.38-.2q0-8-3.12-11.72t-9.74-3.73c-2.15,0-3.44.22-3.89.67a5,5,0,0,0-.29,2.31V121.5a9.89,9.89,0,0,0,.07,1.63.81.81,0,0,0,.41.49,13,13,0,0,0,4.85.57,10.51,10.51,0,0,0,8.35-3.66Q304.19,116.69,304.19,108.35Z"/><path d="M330.93,120a4.18,4.18,0,0,1-.75,1.7,10.63,10.63,0,0,1-1.51,2,7.41,7.41,0,0,1-5.52,2.11,9.45,9.45,0,0,1-7.22-3.12,10.91,10.91,0,0,1-2.91-7.73,11.9,11.9,0,0,1,2.76-8,8.72,8.72,0,0,1,6.89-3.21,8.4,8.4,0,0,1,5.71,2,6.9,6.9,0,0,1,2.45,5.11,23.71,23.71,0,0,1-4.08.19h-3.36l-5.76.15a20,20,0,0,0-.24,3q0,4.83,1.85,7.44a6,6,0,0,0,5.21,2.6,5,5,0,0,0,3.07-.86A10.5,10.5,0,0,0,330,120a.59.59,0,0,1,.53-.39C330.8,119.63,330.93,119.75,330.93,120Zm-4.18-9.79c-.13-3.84-1.5-5.76-4.13-5.76s-4.21,1.92-4.85,5.76Z"/><path d="M365.92,124.94c0,.24-.27.36-.82.36h-8.64c-.41,0-.62-.11-.62-.32s.17-.35.53-.35H358c.48,0,.76-.15.84-.34a8.76,8.76,0,0,0,.12-2V110.33a7.9,7.9,0,0,0-.74-4,2.73,2.73,0,0,0-2.5-1.17,4,4,0,0,0-2.32.74,4,4,0,0,0-1.5,1.9,36.91,36.91,0,0,0-.19,5.32v9.08a17.59,17.59,0,0,0,0,1.82.76.76,0,0,0,.85.58h1.37c.41,0,.61.12.61.35s-.24.32-.72.32h-8.64q-.57,0-.57-.39c0-.15.09-.25.28-.28s.84,0,1.92,0c.52,0,.79-.19.82-.48l.05-.67V110.07a7.51,7.51,0,0,0-.69-3.83,2.72,2.72,0,0,0-2.46-1,4.07,4.07,0,0,0-2.93,1.1,3.64,3.64,0,0,0-1.17,2.77v13.6a3.74,3.74,0,0,0,.21,1.7c.14.18.61.27,1.4.27h.37a2.52,2.52,0,0,1,.52,0c.35,0,.52.13.52.38s-.2.34-.62.34h-.48q-1.16,0-3.6,0h-4.7c-.45,0-.68-.13-.68-.39s.21-.33.63-.33a6.85,6.85,0,0,0,2.11-.17.76.76,0,0,0,.34-.6V111.37a30.65,30.65,0,0,0-.15-4.22c-.09-.41-.56-.62-1.39-.62h-1.58c-.42,0-.63-.11-.63-.34s.07-.3.22-.33.66-.08,1.56-.15a10.92,10.92,0,0,0,2.76-.57,4.22,4.22,0,0,0,1.9-.91c.36-.36.61-.53.77-.53s.26.13.29.38.07,1.15.1,2.69a6.48,6.48,0,0,1,5.91-3.07q4.28,0,5.19,3.21a6.45,6.45,0,0,1,6-3.21c2.37,0,4,.85,4.81,2.54a10.74,10.74,0,0,1,.67,4.47v11.85a4.59,4.59,0,0,0,.17,1.8,3.77,3.77,0,0,0,1.49.27h.85C365.74,124.59,365.92,124.7,365.92,124.94Z"/><path d="M377.53,124.91c0,.29-.27.44-.81.44l-1.15-.1c-1-.06-1.77-.1-2.4-.1h-5a.88.88,0,0,1-.57.2c-.36,0-.53-.12-.53-.36s.32-.51,1-.51a4.5,4.5,0,0,0,2-.26,5.81,5.81,0,0,0,.17-2V107.68a7.75,7.75,0,0,0-.12-1.41c-.05-.15-.25-.22-.6-.22H367.6c-.36,0-.53-.11-.53-.34s.27-.3.8-.33a11.48,11.48,0,0,0,5.45-1.5l.47-.28a6.17,6.17,0,0,1,.38,2.64v15.42a17.14,17.14,0,0,0,.08,2.25c0,.22.21.36.5.43a8.63,8.63,0,0,0,2.11.19C377.31,124.53,377.53,124.66,377.53,124.91ZM373.93,95a1.91,1.91,0,0,1-2.16,2.16,2.12,2.12,0,0,1-1.53-.6,2,2,0,0,1-.63-1.46c0-1.51.72-2.26,2.16-2.26A1.91,1.91,0,0,1,373.93,95Z"/><path d="M413.48,121.41c0,.83,0,2.21-.14,4.13h-.53c-.19,0-.65,0-1.39-.1s-1.56-.09-2.49-.09L389,125.2c-.54,0-.81-.14-.81-.43s.43-.37,1.29-.43a4.76,4.76,0,0,0,2.19-.41q.36-.32.36-1.8v-27c0-1.18-.12-1.87-.36-2.06a6.07,6.07,0,0,0-2.57-.29c-.61,0-.91-.17-.91-.53s.19-.43.57-.43h.44c1.05.1,3.15.15,6.28.15.29,0,.85,0,1.69-.08s1.51-.07,2.06-.07h.53c.57,0,.86.16.86.48a.34.34,0,0,1-.26.36,11.08,11.08,0,0,1-1.66.12c-.93,0-1.48.19-1.66.46a6.73,6.73,0,0,0-.26,2.52V124.1c.86,0,2.06.05,3.6.05a37.43,37.43,0,0,0,7.92-.58,4.44,4.44,0,0,0,3.12-2.16,10.82,10.82,0,0,0,1-4.27c0-.42.21-.63.55-.63s.59.24.55.72v4.18Z"/><path d="M437.92,123.57c0,.22-.36.35-1.06.38a17.22,17.22,0,0,0-6.57,1.64.86.86,0,0,1-.34.09c-.19,0-.29-.13-.29-.38v-2.69a7.11,7.11,0,0,1-6.14,3.07q-3.52,0-5-2.05a3.87,3.87,0,0,1-.74-1.57,34.55,34.55,0,0,1-.12-3.86V107.28a5.21,5.21,0,0,0-.19-2c-.13-.19-.56-.3-1.3-.34h-.62c-.86.07-1.29-.06-1.29-.38s.27-.34.81-.34,1.41,0,2.5.13l1,.07a23.27,23.27,0,0,0,3.12-.2V117.6a15.66,15.66,0,0,0,.48,4.87,3,3,0,0,0,3.12,1.87,4,4,0,0,0,3.74-2.1,10.35,10.35,0,0,0,.86-4.88V110a14.84,14.84,0,0,0-.14-2.44V106c0-.48-.14-.76-.31-.84a3.13,3.13,0,0,0-1.08-.12c-1.35,0-2-.11-2-.43s.34-.29,1-.29h6.53v13.4a40.19,40.19,0,0,0,.14,4.36c.1.61.34,1,.74,1.06a14.61,14.61,0,0,0,2.68.14C437.73,123.23,437.92,123.35,437.92,123.57Z"/><path d="M460.76,124.94q0,.36-.72.36h-8.83c-.41,0-.62-.11-.62-.34a.27.27,0,0,1,.26-.28,17.4,17.4,0,0,1,1.85-.1c.61,0,1-.12,1.06-.26a4.65,4.65,0,0,0,.14-1.56v-9.19a27.5,27.5,0,0,0-.38-6.23,3.18,3.18,0,0,0-3.27-2.15,4.93,4.93,0,0,0-4,2.1,2.78,2.78,0,0,0-.48,1.73V124c0,.38.34.59,1,.62l1.47,0c.32,0,.49.11.49.33s-.2.34-.58.34H439.4q-.72,0-.72-.3c0-.19.29-.32.87-.37h1.2c.48,0,.77-.12.86-.34l.15-.72V113.14c0-3.64,0-5.65-.1-6s-.46-.57-1.2-.57h-1.39q-1,0-1-.36c0-.3.33-.46,1-.46a12.86,12.86,0,0,0,3.12-.52,5.9,5.9,0,0,0,2.35-1.11,1.25,1.25,0,0,1,.67-.38c.22,0,.34.3.34.91v2.3A7.77,7.77,0,0,1,452,103.7a5.39,5.39,0,0,1,5,2.54c.58,1,.86,2.79.86,5.47v11a4.42,4.42,0,0,0,.15,1.68,2.16,2.16,0,0,0,1.39.29h.86C460.6,124.63,460.76,124.73,460.76,124.94Z"/><path d="M480.35,120a4.18,4.18,0,0,1-.75,1.7,10.63,10.63,0,0,1-1.51,2,7.38,7.38,0,0,1-5.52,2.11,9.45,9.45,0,0,1-7.22-3.12,10.91,10.91,0,0,1-2.91-7.73,11.9,11.9,0,0,1,2.76-8,8.72,8.72,0,0,1,6.89-3.21,8.4,8.4,0,0,1,5.71,2,6.87,6.87,0,0,1,2.45,5.11,23.71,23.71,0,0,1-4.08.19h-3.36l-5.76.15a20,20,0,0,0-.24,3q0,4.83,1.85,7.44a6,6,0,0,0,5.21,2.6,5,5,0,0,0,3.07-.86,10.65,10.65,0,0,0,2.5-3.31.57.57,0,0,1,.52-.39C480.22,119.63,480.35,119.75,480.35,120Zm-4.18-9.79c-.13-3.84-1.5-5.76-4.13-5.76s-4.2,1.92-4.84,5.76Z"/><text/><text/></g></g></svg>