<svg xmlns="http://www.w3.org/2000/svg" viewBox="0 0 614.28 217.27"><defs><style>.b2000d9b-e16c-48c4-b904-8a41002a22e7{fill:#ffed00;}.f5966bfc-e352-4d40-bc51-11287f30960d{fill:#8e8e8e;}</style></defs><title>logo_demi_lune_3</title><g id="b4b75b67-7c70-490b-aca0-615e01c341f3" data-name="Calque 2"><g id="a089db40-fd2a-4f94-8b4c-d02866e07308" data-name="Calque 1"><path class="b2000d9b-e16c-48c4-b904-8a41002a22e7" d="M22,21.27a133.06,133.06,0,0,1,65-21c12.63-.61,53-2.55,85,27,25.46,23.51,41.8,63.42,31,100-16.24,55-88,80.45-141,65-34.09-9.94-54.17-35-62-46,0,0,33,35,83,32,39.13-2.35,86-29,80-79a93.65,93.65,0,0,0-14.24-40.1C127.07,25.68,89.33,19,80,17.27A118.6,118.6,0,0,0,22,21.27Z"/><path d="M96.5,216.77a15.54,15.54,0,0,1-7.12-.56,15.54,15.54,0,0,0,7.8-5.44h.32C104.5,210.77,102.5,215.77,96.5,216.77Z"/><path d="M115,175.27c-8.3,3.77-22.82,8.86-28.31,15.86a9.11,9.11,0,0,0-2.19,5.64q0,.85.06,1.65c.35,5,2.32,8.25,5.16,10.19a6.56,6.56,0,0,1-.72.66c-2.19,1.75-5.14,1.78-7.85,1.5a19.17,19.17,0,0,1-2.65-4,20.13,20.13,0,0,1-1.75-12.25A20.77,20.77,0,0,1,79.58,187a27.2,27.2,0,0,1,9.92-9.22c-3.43-.57-6.87-1.47-9.36-4.2-1.87-2-3.21-5.09-3.64-9.8a60.09,60.09,0,0,1,3.81-27.43,41.84,41.84,0,0,1,2.19-4.57,12.38,12.38,0,0,0-3,2s1-6,4-10-1-8-1-13,3-7,2-11a18.58,18.58,0,0,1,0-8s5.3-.11,7,5c4,0,11-2,15,0,1-3,7-5,7-5s1,7-1,8c1,1,5,11,0,19,3,6,6,11,4,21C122.5,149.77,126,170.27,115,175.27Z"/><path d="M97.18,210.77a15.54,15.54,0,0,1-7.8,5.44,17.82,17.82,0,0,1-8.23-5.44c2.71.28,5.66.25,7.85-1.5a6.56,6.56,0,0,0,.72-.66A13.62,13.62,0,0,0,97.18,210.77Z"/><path class="f5966bfc-e352-4d40-bc51-11287f30960d" d="M89.38,216.21A20.13,20.13,0,0,1,83,217.27c-7,0-10.26-2.21-9-6,.56-1.69,3.66-.84,7.15-.5A17.82,17.82,0,0,0,89.38,216.21Z"/><path class="f5966bfc-e352-4d40-bc51-11287f30960d" d="M99,206.27a10.16,10.16,0,0,1-1.82,4.5,13.62,13.62,0,0,1-7.46-2.16c2.61-2.69,1.51-6.16-5.16-10.19-2.47-1.5-2.31-.95-7.81-3.9C75.49,193.84,74,193,71,191.27c-3.88-2.23-4.48-2.63-5-3s-1-.74-1.81-1.43c-2.07-1.69-2.84-2.45-4.19-3.57a42.58,42.58,0,0,0-4-3,24.6,24.6,0,0,0-7-3c-.58-.18-10.53-3.25-14.09-10.76-2.48-5.24-1.52-10.84-.41-14.74,2-7,6-9,7-19s7-8,5-19,2-13,2-15-3-2,.5-10.5c0,0,6,2,7,5,3,0,10-2,13,1,2-2,6-3,6-3l2-1a15.51,15.51,0,0,1,0,11c2,4,2,13-1,20-1.68,3.91,1.33,8.76,4.31,15.07,2.35,5,4.69,10.87,4.69,17.93,0,9.25-2,15.49-4.86,19.3a11.29,11.29,0,0,1-7.14,4.7c-3,0-6,3,3,7,1.11.49,2.32,1.07,3.58,1.72a82.22,82.22,0,0,1,7.11,4.14C93.55,195.63,99.7,201.36,99,206.27Z"/><path d="M266,131.23q0,2-.22,6.65H265c-.29,0-1,0-2.09-.15s-2.35-.16-3.74-.16l-30-.23c-.81,0-1.22-.23-1.22-.7s.65-.59,1.95-.69c1.83-.11,2.92-.32,3.28-.66s.54-1.3.54-2.9V89c0-1.9-.18-3-.54-3.32s-1.65-.46-3.86-.46c-.91,0-1.37-.29-1.37-.85s.29-.7.87-.7h.65c1.58.16,4.73.23,9.45.23.43,0,1.27,0,2.53-.11s2.28-.12,3.1-.12h.79c.87,0,1.3.26,1.3.77a.53.53,0,0,1-.4.58,15.2,15.2,0,0,1-2.49.2c-1.39,0-2.22.29-2.49.73s-.39,1.79-.39,4.06v45.59c1.3.05,3.1.08,5.41.08q8.44,0,11.91-.93a6.78,6.78,0,0,0,4.69-3.48,18.25,18.25,0,0,0,1.44-6.87c0-.67.32-1,.83-1s.88.39.83,1.16v6.72Z"/><path d="M297.71,133.86c0,.88-.85,1.79-2.55,2.74a10,10,0,0,1-4.92,1.43c-3.3,0-5-1.82-5.17-5.48q-2.73,5.72-8.47,5.72a7,7,0,0,1-5.1-2,6.81,6.81,0,0,1-2-5.07q0-6.33,7.08-10a36.55,36.55,0,0,1,8.44-2.47v-1.94q0-6.8-.65-9a5,5,0,0,0-5.2-3.94,6.22,6.22,0,0,0-4.22,1.47,4.69,4.69,0,0,0-1.69,3.71c0,.41.29.61.88.61a2,2,0,0,1,1.59.93,3.42,3.42,0,0,1,.7,2.09q0,3.41-3.14,3.4a3.49,3.49,0,0,1-2.72-1.2,4.43,4.43,0,0,1-1.07-3,8.48,8.48,0,0,1,2.67-6.26q3-2.86,8.23-2.86,7.94,0,9.74,4.64.64,1.77.65,7v14.45c0,2.37,0,3.76.07,4.17.24,1.86.94,2.78,2.1,2.78a4.12,4.12,0,0,0,3.31-1.54c.49-.57.85-.85,1.09-.85S297.71,133.55,297.71,133.86ZM285,125.67V120c-3.56.88-6.11,2-7.65,3.44a7.35,7.35,0,0,0-2.31,5.68,6.09,6.09,0,0,0,1.32,4,4.09,4.09,0,0,0,3.3,1.59q3.06,0,4.91-3.71C284.86,130.51,285,128.71,285,125.67Z"/><path d="M357.53,110.52q0,13.65-8.88,21.24-6.48,5.58-17.39,5.58H311.71c-.92,0-1.37-.26-1.37-.77s.77-.7,2.31-.7c2,0,3.19-.39,3.68-1.16a8.64,8.64,0,0,0,.28-2.94V90.12c0-2.52-.18-4-.54-4.4s-1.6-.62-3.71-.62c-1.11,0-1.66-.28-1.66-.85,0-.41.41-.62,1.22-.62h12.56q13,0,18.4,1.94a20,20,0,0,1,10.61,9.18A30.54,30.54,0,0,1,357.53,110.52Zm-8.08-.31q0-12.85-4.69-18.87t-14.65-6c-3.23,0-5.17.36-5.85,1.09-.29.36-.43,1.6-.43,3.72v41.24a17.71,17.71,0,0,0,.11,2.63,1.27,1.27,0,0,0,.61.78q1.74.93,7.29.93a15.36,15.36,0,0,0,12.56-5.9Q349.44,123.63,349.45,110.21Z"/><path d="M389.64,128.92a7.1,7.1,0,0,1-1.12,2.74,17.05,17.05,0,0,1-2.27,3.21,10.71,10.71,0,0,1-8.3,3.4,13.81,13.81,0,0,1-10.86-5,18.28,18.28,0,0,1-4.36-12.44,20,20,0,0,1,4.14-12.9,12.78,12.78,0,0,1,10.36-5.18,12.16,12.16,0,0,1,8.59,3.21,11.43,11.43,0,0,1,3.68,8.23,34.65,34.65,0,0,1-6.14.3h-5.05l-8.66.23a34.81,34.81,0,0,0-.36,4.86q0,7.77,2.78,12a8.86,8.86,0,0,0,7.83,4.2,7.17,7.17,0,0,0,4.62-1.4,16.9,16.9,0,0,0,3.75-5.33.89.89,0,0,1,.79-.62C389.45,128.37,389.64,128.56,389.64,128.92Zm-6.28-15.77q-.28-9.27-6.2-9.27t-7.29,9.27Z"/><path d="M442.25,136.92q0,.57-1.23.57H428c-.62,0-.94-.16-.94-.5s.27-.58.8-.58h2.38q1.08-.07,1.26-.54a15.19,15.19,0,0,0,.18-3.26V113.4q0-4.49-1.11-6.39a4,4,0,0,0-3.76-1.9,5.71,5.71,0,0,0-3.48,1.2,6.32,6.32,0,0,0-2.26,3,65.6,65.6,0,0,0-.28,8.58v14.61a29.21,29.21,0,0,0,.07,2.93,1.14,1.14,0,0,0,1.27.93h2.06c.62,0,.93.19.93.58s-.37.5-1.09.5h-13c-.57,0-.86-.2-.86-.61,0-.26.14-.41.43-.47s1.25-.07,2.89-.07c.77-.05,1.18-.31,1.22-.77l.08-1.08V113q0-4.47-1-6.17a4,4,0,0,0-3.69-1.7,6,6,0,0,0-4.41,1.78,6.09,6.09,0,0,0-1.76,4.47v21.89a6.47,6.47,0,0,0,.32,2.74c.21.28.91.42,2.09.42h.57a4.69,4.69,0,0,1,.78-.08c.52,0,.79.21.79.62s-.32.54-.94.54h-.72c-1.16-.05-3-.05-5.42,0h-7.07c-.67,0-1-.2-1-.61s.31-.54.94-.54a9.52,9.52,0,0,0,3.17-.27,1.21,1.21,0,0,0,.51-1v-20a53.21,53.21,0,0,0-.22-6.78c-.14-.67-.84-1-2.09-1h-2.38c-.63,0-.94-.18-.94-.54s.11-.49.33-.54,1-.13,2.35-.24a15.85,15.85,0,0,0,4.15-.92c1.66-.57,2.62-1.06,2.86-1.47.53-.57.91-.85,1.15-.85s.39.2.44.62.09,1.85.14,4.32a9.61,9.61,0,0,1,8.89-4.94q6.44,0,7.81,5.18a9.54,9.54,0,0,1,9-5.18q5.35,0,7.23,4.09c.68,1.45,1,3.84,1,7.19v19.09A7.88,7.88,0,0,0,438,136a5.18,5.18,0,0,0,2.24.42h1.28Q442.25,136.34,442.25,136.92Z"/><path d="M459.71,136.87c0,.47-.41.7-1.23.7l-1.73-.15c-1.44-.11-2.64-.16-3.61-.16h-7.5a1.27,1.27,0,0,1-.87.31c-.53,0-.79-.19-.79-.57,0-.55.48-.82,1.44-.82,1.83-.05,2.83-.19,3-.43a10.16,10.16,0,0,0,.25-3.2V109.13a15,15,0,0,0-.18-2.28c-.07-.23-.37-.34-.9-.34h-2.82c-.53,0-.79-.18-.79-.55s.4-.49,1.21-.54a16.43,16.43,0,0,0,8.19-2.4l.71-.46a10.79,10.79,0,0,1,.57,4.24v24.83a31.54,31.54,0,0,0,.11,3.62.88.88,0,0,0,.75.7,12.64,12.64,0,0,0,3.18.31C459.37,136.26,459.71,136.46,459.71,136.87ZM454.3,88.73q0,3.48-3.25,3.48a3.09,3.09,0,0,1-2.31-1,3.27,3.27,0,0,1-.94-2.35c0-2.42,1.09-3.64,3.25-3.64S454.3,86.41,454.3,88.73Z"/><path d="M513.76,131.23q0,2-.22,6.65h-.79c-.29,0-1,0-2.09-.15s-2.35-.16-3.74-.16l-30-.23c-.81,0-1.22-.23-1.22-.7s.65-.59,1.95-.69c1.83-.11,2.92-.32,3.28-.66s.54-1.3.54-2.9V89c0-1.9-.18-3-.54-3.32s-1.65-.46-3.86-.46c-.91,0-1.37-.29-1.37-.85s.29-.7.87-.7h.64c1.59.16,4.74.23,9.46.23.43,0,1.27,0,2.52-.11s2.29-.12,3.11-.12h.79c.87,0,1.3.26,1.3.77a.53.53,0,0,1-.4.58,15.2,15.2,0,0,1-2.49.2c-1.39,0-2.22.29-2.49.73s-.39,1.79-.39,4.06v45.59c1.3.05,3.1.08,5.41.08q8.44,0,11.91-.93a6.78,6.78,0,0,0,4.69-3.48,18.45,18.45,0,0,0,1.44-6.87c0-.67.32-1,.83-1s.88.39.83,1.16v6.72Z"/><path d="M550.49,134.71c0,.36-.53.57-1.59.62A24.55,24.55,0,0,0,539,138a1.15,1.15,0,0,1-.51.15c-.29,0-.43-.21-.43-.62v-4.32a10.51,10.51,0,0,1-9.24,4.94q-5.3,0-7.59-3.3a6.42,6.42,0,0,1-1.11-2.53,60.86,60.86,0,0,1-.17-6.22V108.49a9.12,9.12,0,0,0-.29-3.15c-.19-.3-.85-.48-1.95-.53h-.94c-1.3.1-1.95-.11-1.95-.62q0-.54,1.23-.54c.86,0,2.12.06,3.75.2.82.07,1.3.11,1.44.11a34.34,34.34,0,0,0,4.7-.31V125.1q0,5.93.72,7.85a4.54,4.54,0,0,0,4.69,3,6,6,0,0,0,5.63-3.39c.86-1.64,1.3-4.25,1.3-7.84V112.8a26.46,26.46,0,0,0-.22-3.92v-2.54c-.05-.77-.21-1.22-.47-1.35a4.36,4.36,0,0,0-1.62-.19q-3,.08-3-.69c0-.31.5-.46,1.51-.46h9.82v21.56a68.22,68.22,0,0,0,.21,7c.14,1,.51,1.54,1.1,1.7a21.51,21.51,0,0,0,4,.23C550.21,134.17,550.49,134.35,550.49,134.71Z"/><path d="M584.84,136.92q0,.57-1.08.57H570.48c-.63,0-.94-.18-.94-.54a.43.43,0,0,1,.4-.46c.26-.05,1.19-.1,2.78-.15.91-.05,1.44-.2,1.58-.43a7.24,7.24,0,0,0,.22-2.5V118.6q0-8.4-.58-10a4.78,4.78,0,0,0-4.9-3.47,7.3,7.3,0,0,0-6.07,3.4,4.65,4.65,0,0,0-.72,2.77v24.05c0,.62.52,1,1.54,1l2.2.07c.49,0,.74.18.74.54s-.29.54-.87.54H552.73c-.72,0-1.08-.15-1.08-.47s.43-.52,1.29-.61h1.81c.72,0,1.15-.18,1.3-.54l.21-1.15V117.91c0-5.85,0-9.09-.14-9.71s-.7-.92-1.81-.92h-2.09c-1,0-1.44-.19-1.44-.58s.5-.74,1.51-.74a18,18,0,0,0,4.69-.85,8.61,8.61,0,0,0,3.54-1.77,1.76,1.76,0,0,1,1-.62q.51,0,.51,1.47v3.71a11.46,11.46,0,0,1,9.67-5.18q5.19,0,7.5,4.09,1.31,2.32,1.3,8.81v17.62a7.69,7.69,0,0,0,.22,2.71,3.08,3.08,0,0,0,2.09.46h1.3Q584.84,136.41,584.84,136.92Z"/><path d="M614.28,128.92a7.1,7.1,0,0,1-1.12,2.74,17.05,17.05,0,0,1-2.27,3.21,10.71,10.71,0,0,1-8.3,3.4,13.81,13.81,0,0,1-10.86-5,18.28,18.28,0,0,1-4.36-12.44,20,20,0,0,1,4.14-12.9,12.78,12.78,0,0,1,10.36-5.18,12.16,12.16,0,0,1,8.59,3.21,11.43,11.43,0,0,1,3.68,8.23,34.65,34.65,0,0,1-6.14.3h-5l-8.66.23a34.81,34.81,0,0,0-.36,4.86q0,7.77,2.78,12a8.86,8.86,0,0,0,7.83,4.2,7.17,7.17,0,0,0,4.62-1.4,16.9,16.9,0,0,0,3.75-5.33.89.89,0,0,1,.79-.62C614.09,128.37,614.28,128.56,614.28,128.92ZM608,113.15q-.29-9.27-6.2-9.27t-7.29,9.27Z"/><text/><text/></g></g></svg>