<?xml version="1.0" standalone="no"?>
<!DOCTYPE svg PUBLIC "-//W3C//DTD SVG 20010904//EN"
 "http://www.w3.org/TR/2001/REC-SVG-20010904/DTD/svg10.dtd">
<svg version="1.0" xmlns="http://www.w3.org/2000/svg"
 width="918.000000pt" height="918.000000pt" viewBox="0 0 918.000000 918.000000"
 preserveAspectRatio="xMidYMid meet">
<metadata>
Created by potrace 1.11, written by Peter Selinger 2001-2013
</metadata>
<g transform="translate(0.000000,918.000000) scale(0.100000,-0.100000)"
fill="#000000" stroke="none">
<path d="M4058 9115 c-2 -1 -66 -5 -143 -9 -77 -4 -158 -9 -180 -11 -22 -2
-69 -7 -105 -10 -78 -8 -128 -14 -155 -20 -11 -2 -45 -7 -75 -10 -65 -8 -358
-61 -415 -76 -22 -6 -48 -13 -57 -14 -184 -36 -732 -215 -840 -275 -10 -6 -22
-10 -28 -10 -20 0 -415 -190 -522 -251 -38 -22 -99 -57 -137 -78 -92 -54 -201
-125 -176 -116 35 12 219 66 244 71 14 3 56 14 95 24 232 63 565 114 881 136
195 13 581 8 735 -10 19 -3 67 -7 105 -10 91 -8 300 -41 455 -71 87 -17 186
-39 235 -51 33 -9 67 -17 75 -19 12 -2 88 -23 145 -39 114 -32 204 -61 335
-109 260 -95 563 -237 730 -342 22 -14 42 -25 44 -25 6 0 279 -181 286 -189 3
-3 39 -31 81 -62 41 -31 82 -63 90 -70 8 -8 44 -38 79 -68 108 -90 331 -322
436 -452 231 -288 415 -605 555 -954 72 -182 154 -440 176 -555 2 -13 13 -60
23 -105 10 -44 21 -100 25 -125 3 -25 8 -52 10 -60 2 -8 7 -40 10 -70 3 -30 8
-66 10 -80 26 -174 27 -578 1 -735 -3 -16 -10 -61 -17 -100 -73 -441 -294
-897 -603 -1245 -72 -81 -267 -269 -340 -329 -148 -121 -350 -261 -484 -337
-150 -84 -286 -154 -298 -154 -3 0 -3 8 1 17 33 87 50 309 34 451 -27 249 -85
445 -191 655 -24 47 -37 85 -33 95 25 66 26 327 1 432 -21 90 -73 226 -128
333 l-40 77 30 69 c65 145 84 306 55 471 -15 87 -54 212 -74 236 -9 11 -8 19
4 37 21 32 33 102 31 177 -3 135 -4 140 -17 140 -8 0 -50 -18 -93 -39 -85 -42
-169 -109 -179 -142 -5 -16 -12 -19 -28 -14 -51 15 -116 26 -172 27 -57 1
-196 -10 -240 -18 -11 -2 -49 -7 -85 -10 -36 -3 -74 -7 -86 -9 -17 -4 -25 4
-39 36 -40 87 -140 158 -236 167 -43 4 -49 2 -50 -14 0 -11 -3 -28 -5 -39 -9
-39 -5 -216 7 -257 17 -66 12 -129 -17 -209 -78 -217 -81 -286 -19 -479 56
-176 56 -252 0 -326 -57 -74 -115 -208 -154 -352 l-20 -74 22 16 c66 49 104
68 95 49 -27 -61 -74 -153 -78 -153 -3 0 -24 39 -47 88 -165 345 -175 396
-113 571 94 265 109 554 38 757 -9 25 -8 45 7 95 21 77 26 228 9 287 -15 51
-13 45 -20 82 -6 29 -6 29 -37 13 -17 -8 -67 -28 -111 -44 -81 -30 -153 -67
-179 -94 -13 -13 -18 -12 -40 5 -58 46 -238 59 -422 31 -95 -14 -90 -15 -113
23 -24 41 -94 94 -177 134 -103 50 -105 50 -120 -8 -1 -3 -4 -12 -7 -20 -17
-43 -22 -60 -33 -114 -16 -73 -10 -147 15 -189 28 -45 25 -81 -15 -161 -19
-39 -41 -97 -49 -129 -25 -95 -22 -283 5 -407 6 -25 12 -82 14 -127 5 -112
-17 -189 -87 -300 -92 -145 -121 -219 -133 -328 -22 -209 -56 -318 -161 -521
-95 -183 -115 -232 -144 -342 -28 -105 -35 -159 -34 -282 2 -163 40 -284 126
-398 26 -34 46 -62 43 -62 -2 0 -25 9 -52 21 -26 11 -66 28 -88 37 -198 84
-542 275 -765 424 -205 138 -462 340 -581 457 -80 80 -78 71 11 -49 105 -138
93 -124 221 -275 166 -196 328 -361 549 -560 86 -77 206 -173 330 -263 69 -51
130 -96 135 -100 6 -5 15 -11 20 -13 6 -2 48 -29 95 -60 241 -158 590 -334
844 -425 142 -51 345 -116 406 -129 8 -2 51 -13 95 -24 71 -18 280 -60 375
-75 l35 -6 -3 -84 c-4 -99 17 -224 52 -315 28 -69 91 -187 106 -196 6 -3 15
-15 21 -27 6 -11 7 -18 1 -14 -18 11 -158 22 -234 17 -80 -4 -81 -163 -2 -218
72 -49 158 -67 319 -67 104 0 150 5 228 25 42 10 76 8 137 -8 43 -12 200 -5
255 11 138 40 214 135 159 197 -17 19 -82 39 -135 42 l-37 2 23 45 c85 167 54
306 -105 477 -28 30 -50 55 -50 56 0 2 28 3 63 4 132 1 411 17 497 28 19 2 62
7 95 11 33 3 67 8 75 9 8 2 40 6 70 10 30 4 64 9 75 11 10 2 37 6 60 10 22 3
59 10 83 15 23 5 59 12 80 15 20 3 45 7 54 10 18 5 48 12 88 20 95 19 368 96
526 150 104 35 196 66 204 68 8 3 60 23 115 46 332 136 643 301 924 490 285
192 639 503 816 715 27 33 56 66 63 74 27 28 160 209 219 296 117 176 219 364
293 540 23 55 48 114 55 130 10 24 60 170 72 210 16 56 82 317 86 340 53 314
60 392 61 665 1 186 -3 281 -18 450 -2 20 -8 67 -14 105 -7 39 -14 86 -17 105
-2 19 -7 46 -10 60 -3 14 -8 39 -11 55 -3 17 -12 59 -20 95 -9 36 -18 76 -20
90 -24 120 -158 529 -218 664 -98 218 -200 421 -268 531 -10 17 -21 37 -25 45
-16 35 -182 284 -261 390 -197 267 -474 563 -692 740 -30 25 -57 47 -60 50
-16 18 -250 187 -335 242 -211 136 -461 268 -670 352 -49 20 -99 41 -110 46
-87 43 -599 190 -740 214 -16 3 -43 8 -60 11 -34 6 -123 22 -175 30 -19 3 -46
7 -60 10 -14 2 -47 7 -75 10 -27 3 -66 7 -85 10 -34 4 -124 13 -220 21 -53 5
-667 13 -672 9z m-278 -7339 c30 -14 89 -35 130 -45 41 -11 68 -20 60 -21 -8
-1 -23 -3 -32 -5 -88 -17 -592 -29 -582 -14 3 5 14 9 26 9 37 0 142 64 198
120 l55 56 45 -37 c25 -20 70 -48 100 -63z m114 -980 c114 -82 179 -162 191
-238 6 -34 -29 -119 -50 -125 -17 -5 -98 77 -131 132 -32 53 -59 120 -68 170
-13 69 -17 105 -10 105 3 0 34 -20 68 -44z"/>
</g>
</svg>
